<svg xmlns="http://www.w3.org/2000/svg" xmlns:xlink="http://www.w3.org/1999/xlink" width="500" zoomAndPan="magnify" viewBox="0 0 375 374.999991" height="500" preserveAspectRatio="xMidYMid meet" version="1.0"><defs><g/></defs><g fill="#ffffff" fill-opacity="1"><g transform="translate(79.900319, 206.999173)"><g><path d="M 23.4375 -13.671875 C 18.738281 -18.367188 15 -23.847656 12.21875 -30.109375 C 9.4375 -36.378906 8.046875 -43.070312 8.046875 -50.1875 C 8.046875 -57.351562 9.421875 -64.050781 12.171875 -70.28125 C 14.921875 -76.519531 18.707031 -82.035156 23.53125 -86.828125 C 28.351562 -91.628906 33.945312 -95.367188 40.3125 -98.046875 C 46.6875 -100.734375 53.53125 -102.078125 60.84375 -102.078125 C 68.144531 -102.078125 74.976562 -100.734375 81.34375 -98.046875 C 87.71875 -95.367188 93.316406 -91.628906 98.140625 -86.828125 C 102.972656 -82.035156 106.765625 -76.519531 109.515625 -70.28125 C 112.265625 -64.050781 113.640625 -57.351562 113.640625 -50.1875 C 113.640625 -43.070312 112.265625 -36.378906 109.515625 -30.109375 C 106.765625 -23.847656 102.972656 -18.351562 98.140625 -13.625 C 93.316406 -8.894531 87.71875 -5.1875 81.34375 -2.5 C 74.976562 0.175781 68.144531 1.515625 60.84375 1.515625 C 53.800781 1.515625 47.160156 0.238281 40.921875 -2.3125 C 34.691406 -4.863281 29.195312 -8.347656 24.4375 -12.765625 C 21.820312 -9.953125 19.722656 -7.101562 18.140625 -4.21875 C 16.566406 -1.34375 15.78125 1.671875 15.78125 4.828125 C 15.78125 8.785156 16.71875 12.421875 18.59375 15.734375 C 20.476562 19.054688 23.0625 21.738281 26.34375 23.78125 C 29.632812 25.820312 33.320312 26.945312 37.40625 27.15625 C 41.226562 27.351562 44.878906 26.75 48.359375 25.34375 C 51.847656 23.9375 55.234375 22.140625 58.515625 19.953125 C 61.804688 17.773438 65.128906 15.582031 68.484375 13.375 C 71.835938 11.164062 75.320312 9.304688 78.9375 7.796875 C 82.5625 6.285156 86.414062 5.53125 90.5 5.53125 C 94.863281 5.53125 98.453125 6.820312 101.265625 9.40625 C 104.078125 11.988281 105.484375 15.359375 105.484375 19.515625 C 105.484375 21.253906 105.082031 22.878906 104.28125 24.390625 C 103.476562 25.898438 102.304688 27.070312 100.765625 27.90625 C 99.222656 28.738281 97.3125 29.023438 95.03125 28.765625 C 96.300781 27.828125 97.222656 26.753906 97.796875 25.546875 C 98.367188 24.335938 98.65625 23.097656 98.65625 21.828125 C 98.65625 18.867188 97.628906 16.332031 95.578125 14.21875 C 93.535156 12.113281 90.769531 11.0625 87.28125 11.0625 C 83.125 11.0625 79.285156 11.695312 75.765625 12.96875 C 72.253906 14.25 68.867188 15.8125 65.609375 17.65625 C 62.359375 19.5 59.09375 21.320312 55.8125 23.125 C 52.53125 24.9375 49.078125 26.410156 45.453125 27.546875 C 41.835938 28.691406 37.882812 29.195312 33.59375 29.0625 C 29.300781 28.863281 25.546875 27.84375 22.328125 26 C 19.109375 24.15625 16.609375 21.722656 14.828125 18.703125 C 13.054688 15.679688 12.171875 12.363281 12.171875 8.75 C 12.171875 4.59375 13.207031 0.671875 15.28125 -3.015625 C 17.363281 -6.703125 20.082031 -10.253906 23.4375 -13.671875 Z M 107.203125 -54 C 107.203125 -61.976562 105.941406 -68.832031 103.421875 -74.5625 C 100.910156 -80.300781 97.507812 -84.960938 93.21875 -88.546875 C 88.925781 -92.128906 84.132812 -94.691406 78.84375 -96.234375 C 80.582031 -94.691406 81.972656 -92.613281 83.015625 -90 C 84.054688 -87.382812 84.578125 -84.035156 84.578125 -79.953125 C 84.578125 -74.984375 83.585938 -70.351562 81.609375 -66.0625 C 79.628906 -61.78125 76.960938 -57.726562 73.609375 -53.90625 C 70.253906 -50.082031 66.5 -46.441406 62.34375 -42.984375 C 58.1875 -39.535156 53.894531 -36.203125 49.46875 -32.984375 C 45.050781 -29.765625 40.796875 -26.597656 36.703125 -23.484375 C 32.617188 -20.367188 29 -17.234375 25.84375 -14.078125 C 29.59375 -10.191406 33.960938 -7.328125 38.953125 -5.484375 C 43.953125 -3.640625 49.203125 -2.71875 54.703125 -2.71875 C 59.734375 -2.71875 64.742188 -3.453125 69.734375 -4.921875 C 74.734375 -6.398438 79.476562 -8.5625 83.96875 -11.40625 C 88.457031 -14.257812 92.445312 -17.765625 95.9375 -21.921875 C 99.425781 -26.078125 102.175781 -30.835938 104.1875 -36.203125 C 106.195312 -41.566406 107.203125 -47.5 107.203125 -54 Z M 24.9375 -15.078125 C 28.351562 -18.296875 32.140625 -21.460938 36.296875 -24.578125 C 40.453125 -27.703125 44.707031 -30.851562 49.0625 -34.03125 C 53.425781 -37.21875 57.617188 -40.488281 61.640625 -43.84375 C 65.660156 -47.195312 69.296875 -50.734375 72.546875 -54.453125 C 75.804688 -58.171875 78.375 -62.160156 80.25 -66.421875 C 82.125 -70.679688 83.0625 -75.253906 83.0625 -80.140625 C 83.0625 -84.773438 82.238281 -88.347656 80.59375 -90.859375 C 78.957031 -93.367188 76.863281 -95.144531 74.3125 -96.1875 C 71.769531 -97.226562 69.15625 -97.816406 66.46875 -97.953125 C 64.457031 -97.953125 62.429688 -97.847656 60.390625 -97.640625 C 58.347656 -97.441406 56.316406 -97.078125 54.296875 -96.546875 C 53.898438 -96.472656 53.582031 -96.382812 53.34375 -96.28125 C 53.113281 -96.1875 53 -96.140625 53 -96.140625 L 53.09375 -96.234375 C 48.070312 -94.898438 43.265625 -92.804688 38.671875 -89.953125 C 34.078125 -87.097656 29.984375 -83.507812 26.390625 -79.1875 C 22.804688 -74.863281 19.972656 -69.867188 17.890625 -64.203125 C 15.816406 -58.546875 14.78125 -52.226562 14.78125 -45.25 C 14.78125 -38.613281 15.703125 -32.796875 17.546875 -27.796875 C 19.390625 -22.804688 21.851562 -18.566406 24.9375 -15.078125 Z M 24.9375 -15.078125 "/></g></g></g><g fill="#ffffff" fill-opacity="1"><g transform="translate(188.501756, 206.999173)"><g><path d="M 3.015625 -99.453125 L 3.015625 -100.5625 L 53.203125 -100.5625 C 56.953125 -100.5625 60.90625 -100.007812 65.0625 -98.90625 C 69.21875 -97.800781 73.273438 -96.023438 77.234375 -93.578125 C 81.191406 -91.128906 84.773438 -87.941406 87.984375 -84.015625 C 91.203125 -80.097656 93.765625 -75.351562 95.671875 -69.78125 C 97.585938 -64.21875 98.546875 -57.71875 98.546875 -50.28125 C 98.546875 -42.570312 97.585938 -35.867188 95.671875 -30.171875 C 93.765625 -24.472656 91.203125 -19.695312 87.984375 -15.84375 C 84.773438 -11.988281 81.191406 -8.90625 77.234375 -6.59375 C 73.273438 -4.28125 69.21875 -2.601562 65.0625 -1.5625 C 60.90625 -0.519531 56.953125 0 53.203125 0 L 3.015625 0 L 3.015625 -1.109375 L 5.828125 -1.109375 C 8.648438 -1.109375 10.878906 -1.84375 12.515625 -3.3125 C 14.160156 -4.789062 15.332031 -6.800781 16.03125 -9.34375 C 16.738281 -11.894531 17.09375 -14.75 17.09375 -17.90625 L 17.09375 -82.65625 C 17.09375 -85.875 16.738281 -88.738281 16.03125 -91.25 C 15.332031 -93.769531 14.160156 -95.765625 12.515625 -97.234375 C 10.878906 -98.710938 8.648438 -99.453125 5.828125 -99.453125 Z M 24.640625 -82.65625 L 24.640625 -17.90625 C 24.640625 -14.75 24.957031 -11.894531 25.59375 -9.34375 C 26.226562 -6.800781 27.664062 -4.804688 29.90625 -3.359375 C 32.15625 -1.921875 35.660156 -1.203125 40.421875 -1.203125 C 47.328125 -1.203125 53.832031 -1.972656 59.9375 -3.515625 C 66.039062 -5.054688 71.421875 -7.6875 76.078125 -11.40625 C 80.734375 -15.132812 84.382812 -20.164062 87.03125 -26.5 C 89.6875 -32.832031 91.015625 -40.757812 91.015625 -50.28125 C 91.015625 -59.863281 89.6875 -67.804688 87.03125 -74.109375 C 84.382812 -80.410156 80.734375 -85.421875 76.078125 -89.140625 C 71.421875 -92.867188 66.039062 -95.503906 59.9375 -97.046875 C 53.832031 -98.585938 47.328125 -99.359375 40.421875 -99.359375 C 35.660156 -99.359375 32.15625 -98.632812 29.90625 -97.1875 C 27.664062 -95.75 26.226562 -93.769531 25.59375 -91.25 C 24.957031 -88.738281 24.640625 -85.875 24.640625 -82.65625 Z M 24.640625 -82.65625 "/></g></g></g><g fill="#ffffff" fill-opacity="1"><g transform="translate(107.490986, 262.301174)"><g><path d="M 8.453125 -1.296875 C 9.265625 -1.296875 10.019531 -1.445312 10.71875 -1.75 C 11.425781 -2.0625 12.03125 -2.488281 12.53125 -3.03125 C 13.039062 -3.570312 13.441406 -4.210938 13.734375 -4.953125 C 14.023438 -5.691406 14.171875 -6.492188 14.171875 -7.359375 C 14.171875 -8.222656 14.023438 -9.023438 13.734375 -9.765625 C 13.441406 -10.503906 13.039062 -11.144531 12.53125 -11.6875 C 12.03125 -12.226562 11.425781 -12.648438 10.71875 -12.953125 C 10.019531 -13.265625 9.265625 -13.421875 8.453125 -13.421875 C 7.640625 -13.421875 6.882812 -13.265625 6.1875 -12.953125 C 5.488281 -12.648438 4.882812 -12.226562 4.375 -11.6875 C 3.875 -11.144531 3.476562 -10.503906 3.1875 -9.765625 C 2.894531 -9.023438 2.75 -8.222656 2.75 -7.359375 C 2.75 -6.492188 2.894531 -5.691406 3.1875 -4.953125 C 3.476562 -4.210938 3.875 -3.570312 4.375 -3.03125 C 4.882812 -2.488281 5.488281 -2.0625 6.1875 -1.75 C 6.882812 -1.445312 7.640625 -1.296875 8.453125 -1.296875 Z M 13.203125 4.046875 C 12.453125 4.046875 11.753906 3.945312 11.109375 3.75 C 10.472656 3.5625 9.910156 3.296875 9.421875 2.953125 C 8.941406 2.617188 8.550781 2.210938 8.25 1.734375 C 7.945312 1.265625 7.753906 0.742188 7.671875 0.171875 C 6.742188 0.0664062 5.878906 -0.195312 5.078125 -0.625 C 4.285156 -1.0625 3.59375 -1.609375 3 -2.265625 C 2.40625 -2.929688 1.9375 -3.703125 1.59375 -4.578125 C 1.257812 -5.453125 1.09375 -6.378906 1.09375 -7.359375 C 1.09375 -8.398438 1.285156 -9.378906 1.671875 -10.296875 C 2.066406 -11.222656 2.597656 -12.03125 3.265625 -12.71875 C 3.929688 -13.40625 4.707031 -13.945312 5.59375 -14.34375 C 6.488281 -14.738281 7.441406 -14.9375 8.453125 -14.9375 C 9.460938 -14.9375 10.414062 -14.738281 11.3125 -14.34375 C 12.207031 -13.945312 12.988281 -13.40625 13.65625 -12.71875 C 14.320312 -12.039062 14.847656 -11.238281 15.234375 -10.3125 C 15.617188 -9.394531 15.8125 -8.414062 15.8125 -7.375 C 15.8125 -6.414062 15.644531 -5.503906 15.3125 -4.640625 C 14.988281 -3.773438 14.535156 -3.003906 13.953125 -2.328125 C 13.367188 -1.648438 12.679688 -1.09375 11.890625 -0.65625 C 11.109375 -0.21875 10.257812 0.0546875 9.34375 0.171875 C 9.5 0.890625 9.9375 1.460938 10.65625 1.890625 C 11.375 2.316406 12.273438 2.53125 13.359375 2.53125 C 13.753906 2.53125 14.078125 2.519531 14.328125 2.5 C 14.585938 2.488281 14.796875 2.472656 14.953125 2.453125 C 15.109375 2.429688 15.21875 2.40625 15.28125 2.375 C 15.34375 2.351562 15.382812 2.34375 15.40625 2.34375 L 15.59375 3.84375 C 15.550781 3.851562 15.335938 3.890625 14.953125 3.953125 C 14.578125 4.015625 13.992188 4.046875 13.203125 4.046875 Z M 13.203125 4.046875 "/></g></g></g><g fill="#ffffff" fill-opacity="1"><g transform="translate(127.376707, 262.301174)"><g><path d="M 7.15625 0.21875 C 6.363281 0.21875 5.640625 0.0664062 4.984375 -0.234375 C 4.335938 -0.535156 3.785156 -0.957031 3.328125 -1.5 C 2.867188 -2.039062 2.507812 -2.691406 2.25 -3.453125 C 2 -4.210938 1.875 -5.050781 1.875 -5.96875 L 1.875 -14.71875 L 3.40625 -14.71875 L 3.40625 -6.109375 C 3.40625 -5.378906 3.492188 -4.707031 3.671875 -4.09375 C 3.859375 -3.488281 4.117188 -2.972656 4.453125 -2.546875 C 4.796875 -2.117188 5.203125 -1.785156 5.671875 -1.546875 C 6.148438 -1.316406 6.679688 -1.203125 7.265625 -1.203125 C 7.859375 -1.203125 8.390625 -1.316406 8.859375 -1.546875 C 9.335938 -1.785156 9.742188 -2.117188 10.078125 -2.546875 C 10.421875 -2.972656 10.679688 -3.488281 10.859375 -4.09375 C 11.046875 -4.707031 11.140625 -5.378906 11.140625 -6.109375 L 11.140625 -14.71875 L 12.625 -14.71875 L 12.625 -5.96875 C 12.625 -5.050781 12.488281 -4.210938 12.21875 -3.453125 C 11.945312 -2.691406 11.570312 -2.039062 11.09375 -1.5 C 10.613281 -0.957031 10.035156 -0.535156 9.359375 -0.234375 C 8.679688 0.0664062 7.945312 0.21875 7.15625 0.21875 Z M 7.15625 0.21875 "/></g></g></g><g fill="#ffffff" fill-opacity="1"><g transform="translate(144.845435, 262.301174)"><g><path d="M 6.265625 -15.15625 L 6.703125 -15.15625 L 12.296875 0 L 10.609375 0 L 9.234375 -3.859375 L 3.640625 -3.859375 L 2.265625 0 L 0.65625 0 Z M 8.71875 -5.296875 L 6.4375 -11.671875 L 4.15625 -5.296875 Z M 8.71875 -5.296875 "/></g></g></g><g fill="#ffffff" fill-opacity="1"><g transform="translate(160.776076, 262.301174)"><g><path d="M 3.46875 -11.453125 L 3.46875 0 L 1.984375 0 L 1.984375 -15.15625 L 2.421875 -15.15625 L 12.34375 -3.265625 L 12.34375 -14.71875 L 13.84375 -14.71875 L 13.84375 0.4375 L 13.40625 0.4375 Z M 3.46875 -11.453125 "/></g></g></g><g fill="#ffffff" fill-opacity="1"><g transform="translate(179.563165, 262.301174)"><g/></g></g><g fill="#ffffff" fill-opacity="1"><g transform="translate(187.363927, 262.301174)"><g><path d="M 1.984375 -14.71875 L 6.78125 -14.71875 C 7.914062 -14.71875 8.957031 -14.535156 9.90625 -14.171875 C 10.851562 -13.804688 11.675781 -13.289062 12.375 -12.625 C 13.070312 -11.96875 13.617188 -11.1875 14.015625 -10.28125 C 14.410156 -9.382812 14.609375 -8.410156 14.609375 -7.359375 C 14.609375 -6.304688 14.410156 -5.328125 14.015625 -4.421875 C 13.617188 -3.523438 13.070312 -2.75 12.375 -2.09375 C 11.675781 -1.445312 10.851562 -0.9375 9.90625 -0.5625 C 8.957031 -0.1875 7.914062 0 6.78125 0 L 1.984375 0 Z M 6.765625 -1.421875 C 7.660156 -1.421875 8.488281 -1.566406 9.25 -1.859375 C 10.007812 -2.160156 10.660156 -2.570312 11.203125 -3.09375 C 11.753906 -3.625 12.1875 -4.25 12.5 -4.96875 C 12.8125 -5.695312 12.96875 -6.492188 12.96875 -7.359375 C 12.96875 -8.222656 12.8125 -9.015625 12.5 -9.734375 C 12.1875 -10.460938 11.753906 -11.085938 11.203125 -11.609375 C 10.660156 -12.140625 10.007812 -12.550781 9.25 -12.84375 C 8.488281 -13.144531 7.660156 -13.296875 6.765625 -13.296875 L 3.515625 -13.296875 L 3.515625 -1.421875 Z M 6.765625 -1.421875 "/></g></g></g><g fill="#ffffff" fill-opacity="1"><g transform="translate(206.041147, 262.301174)"><g><path d="M 6.265625 -15.15625 L 6.703125 -15.15625 L 12.296875 0 L 10.609375 0 L 9.234375 -3.859375 L 3.640625 -3.859375 L 2.265625 0 L 0.65625 0 Z M 8.71875 -5.296875 L 6.4375 -11.671875 L 4.15625 -5.296875 Z M 8.71875 -5.296875 "/></g></g></g><g fill="#ffffff" fill-opacity="1"><g transform="translate(221.971791, 262.301174)"><g><path d="M 3.46875 -11.453125 L 3.46875 0 L 1.984375 0 L 1.984375 -15.15625 L 2.421875 -15.15625 L 12.34375 -3.265625 L 12.34375 -14.71875 L 13.84375 -14.71875 L 13.84375 0.4375 L 13.40625 0.4375 Z M 3.46875 -11.453125 "/></g></g></g><g fill="#ffffff" fill-opacity="1"><g transform="translate(240.75888, 262.301174)"><g><path d="M 8.390625 0.21875 C 7.378906 0.21875 6.429688 0.0234375 5.546875 -0.359375 C 4.660156 -0.742188 3.882812 -1.273438 3.21875 -1.953125 C 2.5625 -2.640625 2.039062 -3.4375 1.65625 -4.34375 C 1.28125 -5.257812 1.09375 -6.242188 1.09375 -7.296875 C 1.09375 -8.347656 1.285156 -9.335938 1.671875 -10.265625 C 2.066406 -11.203125 2.597656 -12.015625 3.265625 -12.703125 C 3.929688 -13.398438 4.707031 -13.945312 5.59375 -14.34375 C 6.488281 -14.738281 7.441406 -14.9375 8.453125 -14.9375 C 9.554688 -14.9375 10.582031 -14.707031 11.53125 -14.25 C 12.488281 -13.789062 13.3125 -13.164062 14 -12.375 L 12.828125 -11.375 C 12.253906 -12.039062 11.585938 -12.546875 10.828125 -12.890625 C 10.078125 -13.242188 9.28125 -13.421875 8.4375 -13.421875 C 7.613281 -13.421875 6.859375 -13.265625 6.171875 -12.953125 C 5.484375 -12.648438 4.882812 -12.226562 4.375 -11.6875 C 3.863281 -11.144531 3.460938 -10.503906 3.171875 -9.765625 C 2.890625 -9.023438 2.75 -8.222656 2.75 -7.359375 C 2.75 -6.492188 2.890625 -5.691406 3.171875 -4.953125 C 3.460938 -4.210938 3.863281 -3.570312 4.375 -3.03125 C 4.882812 -2.488281 5.488281 -2.0625 6.1875 -1.75 C 6.894531 -1.445312 7.660156 -1.296875 8.484375 -1.296875 C 9.398438 -1.296875 10.234375 -1.476562 10.984375 -1.84375 C 11.742188 -2.207031 12.378906 -2.695312 12.890625 -3.3125 L 12.890625 -6.484375 L 8.453125 -6.484375 L 8.453125 -7.90625 L 14.4375 -7.90625 L 14.4375 -3.03125 C 13.71875 -1.988281 12.832031 -1.1875 11.78125 -0.625 C 10.738281 -0.0625 9.609375 0.21875 8.390625 0.21875 Z M 8.390625 0.21875 "/></g></g></g><path stroke-linecap="butt" transform="matrix(0.75, 0, 0, 0.75, 204.691426, 221.922026)" fill="none" stroke-linejoin="miter" d="M -0.0000266781 0.999798 L 87.697896 0.999798 " stroke="#202124" stroke-width="2" stroke-opacity="1" stroke-miterlimit="4"/></svg>